<svg xmlns="http://www.w3.org/2000/svg" xmlns:xlink="http://www.w3.org/1999/xlink" width="512" height="512" viewBox="0 0 512 512">
  <defs>
    <clipPath id="canvas-clip">
      <rect width="512" height="512" rx="112" ry="112"/>
    </clipPath>
  </defs>
  <rect width="512" height="512" rx="112" ry="112" fill="#283347"  clip-path="url(#canvas-clip)"/>
  <g clip-path="url(#canvas-clip)">
    <g transform="rotate(0, 256, 256)">
      
      <g transform="translate(103 103) scale(12.791666666666666 12.791666666666666) translate(0 0)"><g fill="none" stroke="#DBDBDB" stroke-linecap="round" stroke-linejoin="round" stroke-width="2"><path d="M16 7h.01M3.4 18H12a8 8 0 0 0 8-8V7a4 4 0 0 0-7.28-2.3L2 20"/><path d="m20 7l2 .5l-2 .5M10 18v3m4-3.25V21m-7-3a6 6 0 0 0 3.84-10.61"/></g></g>
    </g>
  </g>
</svg>